<?xml version="1.0" encoding="utf-8"?>
<svg version="1.1" xmlns:cc="http://creativecommons.org/ns#" xmlns:dc="http://purl.org/dc/elements/1.1/" xmlns:rdf="http://www.w3.org/1999/02/22-rdf-syntax-ns#" xmlns="http://www.w3.org/2000/svg" xmlns:xlink="http://www.w3.org/1999/xlink" x="0px" y="0px" viewBox="0 0 1024 768" xml:space="preserve">
<g transform="translate(512,384) scale(1.5 1.2)">
    <path id="path" d="M152.4,-201.9C199,-175.9,239.3,-133.4,249.6,-85C260,-36.7,240.3,17.5,217.4,65.3C194.5,113.1,168.4,154.4,131.6,187.1C94.8,219.9,47.4,243.9,-3.9,249.3C-55.3,254.7,-110.5,241.4,-152.5,210.4C-194.5,179.4,-223.3,130.6,-240,78.2C-256.8,25.8,-261.5,-30.4,-242.2,-75.2C-222.8,-120,-179.3,-153.4,-134.9,-180.2C-90.5,-206.9,-45.3,-227,3.8,-232.2C52.9,-237.5,105.8,-228,152.4,-201.9Z" fill="#af7060">
	</path>
</g>

<animate xlink:href="#path" attributeType="XML" dur="20s" repeatCount="indefinite" attributeName="d" keyTimes="0; 0.2; 0.4; 0.6; 0.8; 1" calcMode="spline" keySplines="0.9 0.1 0.1 0.9;0.9 0.1 0.1 0.9;0.9 0.1 0.1 0.9;0.9 0.1 0.1 0.9;0.9 0.1 0.1 0.9" values="M120.2,-176.8C149.6,-144.2,162.8,-100.7,175.5,-57.9C188.3,-15,200.7,27.1,195.6,70.1C190.6,113,168.2,156.8,132.7,178C97.2,199.1,48.6,197.5,4.9,190.8C-38.8,184.1,-77.6,172.1,-115.3,151.7C-153,131.3,-189.7,102.4,-205.6,64.2C-221.6,26.1,-216.8,-21.4,-204,-67.9C-191.2,-114.4,-170.2,-160,-134.9,-190.6C-99.5,-221.3,-49.8,-237.2,-2.2,-234.2C45.5,-231.2,90.9,-209.5,120.2,-176.8Z; M152.4,-201.9C199,-175.9,239.3,-133.4,249.6,-85C260,-36.7,240.3,17.5,217.4,65.3C194.5,113.1,168.4,154.4,131.6,187.1C94.8,219.9,47.4,243.9,-3.9,249.3C-55.3,254.7,-110.5,241.4,-152.5,210.4C-194.5,179.4,-223.3,130.6,-240,78.2C-256.8,25.8,-261.5,-30.4,-242.2,-75.2C-222.8,-120,-179.3,-153.4,-134.9,-180.2C-90.5,-206.9,-45.3,-227,3.8,-232.2C52.9,-237.5,105.8,-228,152.4,-201.9Z; M101.9,-120.6C144.2,-109.5,199.1,-96,223.6,-62.7C248.2,-29.4,242.5,23.8,220.4,65.3C198.2,106.8,159.7,136.8,120.2,173.1C80.7,209.4,40.4,252.2,-4.7,258.7C-49.8,265.2,-99.5,235.3,-119,192.5C-138.5,149.7,-127.8,93.8,-144.4,46.1C-161,-1.6,-205.1,-41.3,-214.9,-88C-224.7,-134.6,-200.2,-188.3,-158.7,-199.6C-117.2,-210.9,-58.6,-180,-14.4,-160.1C29.8,-140.3,59.6,-131.6,101.9,-120.6Z; M113.1,-161.5C148.6,-129.9,180.8,-99.5,181.6,-66.3C182.3,-33.1,151.5,3.1,132.4,37.1C113.2,71.2,105.7,103.2,85.6,142.9C65.4,182.7,32.7,230.4,-3.9,235.8C-40.6,241.2,-81.1,204.3,-114.7,168.9C-148.3,133.5,-175,99.5,-198.1,57.5C-221.3,15.5,-240.9,-34.6,-221,-64.4C-201.2,-94.2,-141.7,-103.7,-98.3,-132.8C-54.9,-161.8,-27.4,-210.4,5.7,-218.2C38.8,-226.1,77.6,-193.1,113.1,-161.5Z; M102,-143.7C138.9,-113.5,180.3,-92.8,196.8,-59.7C213.4,-26.7,205.1,18.6,190.6,61.5C176.1,104.4,155.4,144.8,122.5,162.7C89.7,180.5,44.9,175.8,-1.2,177.4C-47.2,179,-94.4,187,-113.8,164.8C-133.1,142.5,-124.6,90.1,-143.6,43.8C-162.6,-2.6,-209.2,-42.9,-216.4,-85.7C-223.7,-128.5,-191.5,-173.9,-148.8,-202.2C-106.2,-230.5,-53.1,-241.7,-10.3,-227.6C32.5,-213.4,65,-173.9,102,-143.7Z; M120.2,-176.8C149.6,-144.2,162.8,-100.7,175.5,-57.9C188.3,-15,200.7,27.1,195.6,70.1C190.6,113,168.2,156.8,132.7,178C97.2,199.1,48.6,197.5,4.9,190.8C-38.8,184.1,-77.6,172.1,-115.3,151.7C-153,131.3,-189.7,102.4,-205.6,64.2C-221.6,26.1,-216.8,-21.4,-204,-67.9C-191.2,-114.4,-170.2,-160,-134.9,-190.6C-99.5,-221.3,-49.8,-237.2,-2.2,-234.2C45.5,-231.2,90.9,-209.5,120.2,-176.8Z" fill="freeze"   />
<path d="m511.97 128.03c-0.07-0.02-8.13 12.75-17.92 28.38l-17.8 28.43 17.85 0.04c9.81 0.02 25.88 0.02 35.69 0l17.85-0.04-17.77-28.39c-9.78-15.61-17.83-28.4-17.9-28.42zm-128.09 34.14l-0.1 2.16c-0.06 1.19-0.6 16.19-1.21 33.32-0.61 17.14-1.09 31.31-1.06 31.5 0.04 0.3 3.58-1.7 30.92-17.48 16.98-9.8 30.87-17.85 30.87-17.89 0-0.05-12.53-6.74-27.86-14.87-15.32-8.13-28.69-15.22-29.71-15.76v-0.01l-1.85-0.97zm256.11 0.05c-0.02-0.02-13.4 7.06-29.72 15.72-16.33 8.67-29.69 15.79-29.69 15.84 0 0.04 13.9 8.09 30.88 17.89l30.87 17.81 0.04-0.42c0.03-0.23-0.49-15.35-1.15-33.61-0.65-18.26-1.2-33.21-1.23-33.23zm-132.4 63.75c-0.87 0.03-2.94 0.13-4.59 0.23-1.65 0.09-4.14 0.27-5.53 0.4s-3.42 0.34-4.51 0.48c-1.09 0.13-3.4 0.46-5.14 0.71-1.74 0.27-4.91 0.83-7.05 1.26-2.15 0.43-5.42 1.17-7.28 1.64s-4.27 1.12-5.36 1.43c-1.09 0.32-3.11 0.94-4.51 1.38-1.39 0.44-3.85 1.28-5.46 1.87-1.62 0.59-4.25 1.61-5.86 2.26-1.6 0.65-4.03 1.69-5.39 2.31-1.37 0.61-3.99 1.86-5.82 2.78s-4.38 2.25-5.66 2.96c-1.28 0.7-3.39 1.92-4.7 2.7-1.3 0.78-4.12 2.58-6.25 3.99s-5.19 3.55-6.8 4.75c-1.6 1.2-3.77 2.87-4.82 3.71-1.04 0.84-2.75 2.26-3.8 3.15-1.04 0.9-2.99 2.64-4.34 3.89-1.35 1.24-3.91 3.74-5.7 5.55-1.78 1.82-4.21 4.41-5.4 5.76-1.19 1.34-2.93 3.37-3.86 4.5-0.92 1.13-2.86 3.62-4.3 5.53-1.44 1.92-3.72 5.16-5.08 7.2s-3.19 4.93-4.08 6.41c-0.88 1.48-2.14 3.66-2.8 4.85-0.65 1.19-1.91 3.6-2.8 5.37-0.88 1.77-2.16 4.43-2.83 5.91s-1.74 3.97-2.37 5.53c-0.63 1.57-1.63 4.16-2.22 5.77-0.58 1.61-1.42 4.07-1.86 5.46s-1.13 3.67-1.54 5.06c-0.4 1.39-1.07 3.95-1.5 5.69-0.16 0.66-0.36 1.65-0.56 2.54h15.01v60.21h-16.81v0.8c0.25 1.5 0.57 3.31 0.87 4.85 0.39 1.96 1.06 4.98 1.49 6.72s1.1 4.3 1.5 5.7c0.41 1.39 1.02 3.41 1.36 4.5s1.06 3.22 1.59 4.75c0.54 1.52 1.6 4.33 2.36 6.25 0.77 1.92 1.96 4.73 2.65 6.25 0.69 1.51 1.98 4.2 2.86 5.97 0.89 1.77 2.15 4.19 2.8 5.38 0.66 1.19 1.92 3.37 2.8 4.85 0.89 1.48 2.72 4.36 4.08 6.4 1.36 2.05 3.45 5.04 4.65 6.65 1.2 1.6 2.89 3.8 3.75 4.86 0.86 1.07 2.25 2.75 3.09 3.72 0.83 0.98 2.19 2.52 3.02 3.43 0.83 0.92 2.83 3.01 4.44 4.65 1.62 1.64 4.04 3.99 5.38 5.23 1.35 1.24 3.24 2.93 4.2 3.75 0.95 0.82 2.66 2.24 3.79 3.16s3.38 2.65 4.98 3.85c1.61 1.2 4.67 3.33 6.8 4.75 2.13 1.41 4.84 3.14 6.01 3.84 1.18 0.69 3.03 1.77 4.12 2.39 1.08 0.62 3.65 1.97 5.69 3.01 2.04 1.03 4.82 2.37 6.16 2.98 1.35 0.61 3.58 1.58 4.94 2.15 1.37 0.57 3.75 1.51 5.3 2.08 1.55 0.58 4.09 1.48 5.66 1.99 1.56 0.52 4.06 1.3 5.55 1.73 1.49 0.42 3.95 1.09 5.46 1.48 1.51 0.38 4.1 0.99 5.75 1.34 1.66 0.35 4.5 0.88 6.33 1.19 1.82 0.3 4.71 0.74 6.42 0.96s4.71 0.54 6.68 0.71 5.79 0.39 8.49 0.49c3.64 0.13 6.15 0.13 9.76 0 2.67-0.1 6.17-0.29 7.79-0.42 1.61-0.13 4.13-0.38 5.61-0.55 1.48-0.18 3.87-0.5 5.3-0.71 1.44-0.22 3.93-0.64 5.55-0.94s4.36-0.87 6.09-1.27c1.73-0.39 4.22-1 5.52-1.35 1.3-0.36 3.33-0.93 4.51-1.28 1.17-0.35 3.17-0.98 4.43-1.4 1.27-0.42 3.22-1.1 4.35-1.5 1.13-0.41 3.47-1.32 5.21-2.02s4.34-1.8 5.78-2.45c1.43-0.65 4.21-1.99 6.16-2.97 1.96-0.99 4.64-2.4 5.96-3.14s3.39-1.94 4.59-2.66 3.64-2.28 5.43-3.46 4.32-2.92 5.62-3.86c1.3-0.95 3.54-2.64 4.97-3.77s3.49-2.8 4.57-3.71c1.08-0.92 3.14-2.75 4.58-4.08 1.45-1.32 3.99-3.78 5.64-5.46 1.66-1.69 3.69-3.81 4.52-4.73 0.82-0.91 2.14-2.4 2.93-3.32 0.78-0.91 2.2-2.62 3.15-3.79 0.94-1.18 2.67-3.42 3.84-4.98 1.16-1.57 3.18-4.43 4.47-6.37 1.29-1.93 3.12-4.82 4.07-6.4 0.94-1.59 2.2-3.74 2.78-4.79 0.58-1.04 1.83-3.43 2.77-5.29 0.95-1.88 2.22-4.51 2.83-5.86 0.61-1.34 1.58-3.59 2.16-4.98s1.5-3.74 2.06-5.22c0.55-1.48 1.43-4 1.97-5.61s1.47-4.66 2.07-6.79c0.6-2.12 1.49-5.57 1.96-7.67 0.48-2.09 1.12-5.23 1.43-6.97s0.74-4.37 0.95-5.85c0.19-1.33 0.42-3.12 0.56-4.35-5.22 8.31-14.44 13.85-24.98 13.85h-16.65v-10.03h16.65c10.7 0 19.4-8.7 19.4-19.49v-11.29h-36.05v-10.12h41.49c-0.04-0.31-0.07-0.77-0.11-1.03-0.22-1.7-0.61-4.4-0.88-6.01-0.26-1.61-0.75-4.25-1.09-5.86s-0.86-3.99-1.18-5.28c-0.31-1.29-0.96-3.74-1.44-5.45-0.48-1.7-1.24-4.24-1.68-5.63s-1.28-3.85-1.87-5.46-1.53-4.06-2.09-5.45c-0.57-1.39-1.58-3.78-2.26-5.3-0.67-1.52-2-4.32-2.95-6.22s-2.26-4.42-2.92-5.61-1.87-3.31-2.7-4.7-2.67-4.27-4.08-6.4-3.55-5.19-4.75-6.8-2.87-3.78-3.71-4.82c-0.84-1.05-2.26-2.76-3.15-3.8-0.9-1.05-2.64-3-3.89-4.35-1.24-1.35-3.7-3.87-5.47-5.61-1.78-1.74-4.15-3.99-5.28-5s-2.99-2.61-4.13-3.56-3.13-2.55-4.43-3.56c-1.29-1.01-3.27-2.48-4.38-3.29-1.12-0.8-3.29-2.29-4.83-3.32-1.53-1.02-3.89-2.54-5.24-3.36-1.35-0.83-3.73-2.22-5.3-3.09-1.56-0.88-4.36-2.35-6.21-3.27-1.85-0.93-4.52-2.21-5.93-2.85s-3.99-1.73-5.73-2.43-4.09-1.61-5.22-2.02-3.09-1.09-4.36-1.51-3.51-1.12-4.98-1.55c-1.47-0.44-4.06-1.15-5.76-1.58s-4.46-1.08-6.15-1.44c-1.69-0.35-4.5-0.89-6.25-1.19s-4.57-0.72-6.26-0.93c-1.7-0.22-4.29-0.5-5.77-0.64-1.48-0.13-3.83-0.31-5.22-0.4-1.39-0.08-4.67-0.18-7.28-0.22-2.61-0.03-5.45-0.03-6.32-0.01zm161.25 139c0.21 1.74 0.46 4 0.61 5.69 0.17 2 0.39 5.82 0.49 8.5 0.13 3.6 0.13 6.13-0.01 9.72-0.09 2.68-0.28 6.15-0.41 7.71-0.13 1.57-0.34 3.81-0.48 4.99-0.01 0.11-0.04 0.34-0.06 0.47 2.86-4.54 4.53-9.9 4.53-15.67v-21.41h-4.67zm-312.82 45.04c-0.07-0.41-0.19-1.01-0.24-1.32-0.22-1.43-0.54-3.71-0.71-5.06s-0.42-3.66-0.55-5.14c-0.14-1.48-0.33-3.93-0.43-5.45-0.1-1.53-0.19-5.58-0.19-9.02 0-3.43 0.09-7.49 0.19-9.01 0.1-1.53 0.29-3.98 0.43-5.46 0.13-1.48 0.38-3.79 0.55-5.14s0.49-3.62 0.71-5.06c0.05-0.3 0.17-0.91 0.24-1.31v-0.34h0.06c0.25-1.46 0.53-3.08 0.81-4.51 0.24-1.22 0.6-2.71 0.93-4.19h-10.75v66.9h8.95v-5.89zm0.06-52.31c-0.02 0.11-0.04 0.23-0.06 0.34v8.1h7.69v-8.44h-7.63zm310.35-104.15l0.36 0.62c0.2 0.34 8.23 14.25 17.84 30.91s17.51 30.3 17.55 30.3c0.05 0 7.17-13.36 15.84-29.68 8.66-16.33 15.74-29.72 15.72-29.74s-14.84-0.57-32.92-1.22c-18.06-0.65-33.19-1.18-33.62-1.18l-0.01-0.01h-0.76zm-308.97 0.01l-1.64 0.01c-0.9 0.01-15.79 0.54-33.1 1.17-17.31 0.64-31.73 1.18-32.04 1.21l-0.57 0.06 15.75 29.68c8.66 16.33 15.79 29.69 15.83 29.69s7.94-13.64 17.55-30.3c9.61-16.67 17.64-30.58 17.84-30.92l0.38-0.6zm88.1 91.6h9.45v11.79h11.79v8.44h-11.79v3.1c3.35 1.92 11.29 7.61 13.21 9.2l-5.18 7.94c-1.92-2.09-5.02-5.1-8.03-7.86v17.48h-9.45v-16.48c-2.84 4.94-6.02 9.12-9.45 12.13-1.42-2.18-4.35-5.27-6.35-6.86 5.52-4.1 10.95-11.37 14.21-18.65h-12.12v-8.44h13.71v-11.79zm265.51 3.11v71.51l0.83-0.53c0.46-0.29 13.27-8.31 28.47-17.82 15.19-9.51 27.63-17.34 27.63-17.4s-12.44-7.9-27.63-17.41c-15.2-9.51-28.01-17.53-28.47-17.82l-0.83-0.53zm-398.3 0.07l-28.38 17.77c-15.62 9.77-28.39 17.83-28.39 17.91s12.77 8.15 28.39 17.92l28.38 17.77 0.04-17.84c0.02-9.82 0.02-25.87 0-35.69l-0.04-17.84zm62.65 0.08h46.08v15.22h-4.02v26.76h-14.55v5.35h18.73v8.44h-46.91v-8.44h18.82v-5.35h-14.13v-26.76h-4.02v-15.22zm94.64 0.83h33.95v44.99h-33.11c3.26 3.01 6.86 6.53 8.86 8.87l-7.19 6.02c-2.34-3.01-7.27-8.11-11.04-11.63l6.86-5.52 1.67 1.51v-44.24zm-85.77 7.2v5.26h28.01v-5.26h-28.01zm94.8 0.66v4.85h15.39v-4.85h-15.39zm37.78 7.86h46.16v10.12h-46.16v-10.12zm91.29 0h10.11v5.11c0 11.12-9.03 20.15-20.23 20.15v25.75h-10.12v-25.75h-15.81v-10.12h25.93c5.6 0 10.12-4.51 10.12-10.03v-5.11zm-219.53 3.43v4.52h19.24v-4.52h-19.24zm90.46 0.92v4.85h15.39v-4.85h-15.39zm-123.07 5.19v8.7h7.69v-8.7h-7.69zm32.61 4.6v4.6h19.24v-4.6h-19.24zm128.24 1h46.16v6.27c0 1.34-0.08 2.59-0.25 3.85-1.92 14.55-14.3 25.67-29.27 25.67h-16.64v-10.03h16.64c9.37 0 17.23-6.69 18.99-15.64h-35.63v-10.12zm-37.78 1.34v5.01h15.39v-5.01h-15.39zm-123.07 10.12v8.86h7.69v-8.86h-7.69zm142.39 4.18c3.35 5.18 8.2 12.29 10.46 16.64l-9.29 4.76c-2-4.43-6.6-11.79-9.87-17.39l8.7-4.01zm-60.79 1.08l8.86 3.52c-1.67 5.93-4.1 13.38-7.02 18.23l-9.12-4.52c3.01-4.43 5.86-11.29 7.28-17.23zm11.96 1.76h9.78v11.29c0 2.51 0.84 2.84 5.35 2.84h13.38c3.93 0 4.52-1.17 5.02-9.61 2.01 1.59 6.19 3.01 8.95 3.51-1.26 11.96-4.02 14.88-13.22 14.88h-15.05c-11.37 0-14.21-2.76-14.21-11.45v-11.46zm-40.54 6.52c5.1 3.85 11.12 9.12 14.21 12.71l-7.61 5.19c-3.01-3.6-9.03-9.53-14.04-13.63l7.44-4.27zm-23.67 0.34l8.95 2.93c-4.26 5.93-11.29 11.54-17.64 14.96-1.43-1.84-4.77-5.26-6.69-6.85 5.93-2.6 12.04-6.61 15.38-11.04zm-63.68 47.21c-0.05 0-7.17 13.35-15.84 29.68-8.66 16.33-15.74 29.71-15.72 29.73s14.97 0.58 33.23 1.23c18.26 0.66 33.38 1.17 33.61 1.15l0.42-0.05-17.81-30.87c-9.8-16.98-17.85-30.87-17.89-30.87zm380.48 0c-0.04 0-8.09 13.89-17.89 30.87l-17.82 30.87 0.66 0.05c0.36 0.02 15.48-0.49 33.61-1.15 18.13-0.65 32.97-1.2 32.99-1.23 0.02-0.02-7.05-13.4-15.71-29.73-8.67-16.33-15.8-29.68-15.84-29.68zm-320.7 85.84v0.53c0 0.28 0.53 15.43 1.18 33.64 0.66 18.21 1.21 33.13 1.23 33.15s13.4-7.05 29.73-15.72c16.33-8.66 29.69-15.79 29.69-15.84 0-0.04-13.54-7.89-30.09-17.44-16.54-9.54-30.45-17.58-30.91-17.84l-0.83-0.48zm260.86 0.06l-30.87 17.82c-16.98 9.79-30.88 17.84-30.88 17.89 0 0.04 13.36 7.17 29.69 15.83s29.7 15.74 29.73 15.72c0.02-0.01 0.57-14.97 1.23-33.23 0.65-18.26 1.17-33.38 1.14-33.61l-0.04-0.42zm-166.14 44.56l0.62 0.99c0.34 0.55 8.35 13.34 17.8 28.43 9.44 15.09 17.24 27.44 17.32 27.44s7.88-12.35 17.33-27.44c9.44-15.09 17.45-27.88 17.79-28.43l0.63-0.99h-35.75-35.74z" fill="#232323" transform="translate(153.6 115.2) scale(0.7)" />
</svg>